<svg width="69" height="62" viewBox="0 0 69 62" fill="none" xmlns="http://www.w3.org/2000/svg">
<path d="M35.322 40.6261V60.7196C35.322 61.7107 36.3582 62.2964 37.2142 61.8459L50.0542 54.7276C50.4597 54.5023 50.73 54.0968 50.73 53.6013V33.688C50.73 32.7419 49.6938 32.1112 48.8378 32.5617L35.9978 39.4998C35.5473 39.7251 35.322 40.1756 35.322 40.6261Z" fill="#1C2F50"/>
<path d="M0 24.0469V43.5547C0 44.0052 0.270315 44.4557 0.675789 44.681L14.4168 52.2949C15.2728 52.7454 16.309 52.1597 16.309 51.1686V31.3905C16.309 30.94 16.0387 30.4894 15.6332 30.2642L1.89221 22.8755C1.03621 22.4701 0 23.0557 0 24.0469Z" fill="#1C2F50"/>
<path d="M66.9039 22.7854L53.1628 30.219C52.7574 30.4443 52.4871 30.8948 52.4871 31.3453V51.1685C52.4871 52.1596 53.5233 52.7453 54.3793 52.2948L68.1203 44.6809C68.5258 44.4556 68.7961 44.0502 68.7961 43.5546V23.9117C68.7961 22.9205 67.7599 22.3348 66.9039 22.7854Z" fill="#1C2F50"/>
<path d="M18.1106 33.7332V53.5563C18.1106 54.0068 18.3809 54.4574 18.7864 54.6826L31.6264 61.8009C32.4824 62.2515 33.5186 61.6658 33.5186 60.6746V40.6262C33.5186 40.1757 33.2483 39.7252 32.8428 39.4999L20.0028 32.6069C19.1468 32.1563 18.1106 32.7871 18.1106 33.7332Z" fill="#1C2F50"/>
<path d="M16.6675 9.63016L2.02542 17.7396C1.16942 18.2352 1.16942 19.4967 2.02542 19.9922L16.6675 28.1017C17.073 28.327 17.5686 28.327 17.974 28.0567L30.9942 19.9472C31.8052 19.4516 31.8052 18.2802 30.9942 17.7847L17.974 9.67521C17.5686 9.44994 17.073 9.40489 16.6675 9.63016Z" fill="#1C2F50"/>
<path d="M47.7549 7.2422L35.005 0.168947C34.5996 -0.0563157 34.149 -0.0563157 33.7886 0.168947L21.0387 7.2422C20.1827 7.69273 20.1377 8.90915 20.9937 9.44978L33.7436 17.4241C34.149 17.6944 34.6897 17.6944 35.0951 17.4241L47.845 9.44978C48.656 8.90915 48.6109 7.69273 47.7549 7.2422Z" fill="#1C2F50"/>
<path d="M52.1229 28.1016L66.765 19.9921C67.621 19.4965 67.621 18.2351 66.765 17.7395L52.1229 9.63001C51.7174 9.40475 51.2219 9.40475 50.8164 9.67506L37.7962 17.7845C36.9853 18.2801 36.9853 19.4515 37.7962 19.947L50.8164 28.0565C51.2219 28.3268 51.7174 28.3268 52.1229 28.1016Z" fill="#1C2F50"/>
<path d="M21.0379 30.5343L33.7878 37.6075C34.1932 37.8328 34.6438 37.8328 35.0042 37.6075L47.7541 30.5343C48.6101 30.0838 48.6551 28.8673 47.7991 28.3267L35.0492 20.3524C34.6438 20.0821 34.1031 20.0821 33.6977 20.3524L20.9478 28.3267C20.1368 28.8223 20.1819 30.0387 21.0379 30.5343Z" fill="#1C2F50"/>
<path d="M26.762 9.13474C26.762 8.90947 26.807 8.72926 26.8521 8.504C26.8971 8.32379 26.9872 8.09852 27.0773 7.91831C27.1674 7.7381 27.3026 7.60295 27.4378 7.42274C27.5729 7.28758 27.7531 7.15242 27.9333 7.06231C28.1135 6.97221 28.2938 6.8821 28.474 6.83705C28.6542 6.792 28.8794 6.74695 29.1047 6.74695C29.33 6.74695 29.5102 6.792 29.7354 6.83705C29.9156 6.8821 30.1409 6.97221 30.3211 7.06231C30.5013 7.15242 30.6365 7.28758 30.8167 7.42274C30.9519 7.55789 31.087 7.7381 31.1771 7.91831C31.2672 8.09852 31.3573 8.27874 31.4024 8.504C31.4474 8.68421 31.4925 8.90947 31.4925 9.13474C31.4925 9.36 31.4474 9.54021 31.4024 9.76547C31.3573 9.94568 31.2672 10.1709 31.1771 10.3061C31.087 10.4863 30.9519 10.6215 30.8167 10.8017C30.6815 10.9368 30.5013 11.072 30.3211 11.1621C30.1409 11.2522 29.9607 11.3423 29.7354 11.3874C29.5552 11.4324 29.33 11.4775 29.1047 11.4775C28.8794 11.4775 28.6992 11.4324 28.474 11.3874C28.2938 11.3423 28.0685 11.2522 27.9333 11.1621C27.7531 11.072 27.618 10.9368 27.4378 10.8017C27.2575 10.6665 27.1674 10.4863 27.0773 10.3061C26.9872 10.1259 26.8971 9.94568 26.8521 9.76547C26.807 9.58526 26.762 9.36 26.762 9.13474ZM27.7081 9.13474C27.7081 9.36 27.7531 9.54021 27.7982 9.72042C27.8883 9.90063 27.9784 10.0808 28.1135 10.216C28.2487 10.3512 28.3839 10.4413 28.5641 10.5314C28.7443 10.6215 28.9245 10.6665 29.1498 10.6665C29.375 10.6665 29.5552 10.6215 29.7354 10.5314C29.9156 10.4413 30.0508 10.3512 30.186 10.216C30.3211 10.0808 30.4112 9.90063 30.5013 9.72042C30.5914 9.54021 30.5914 9.36 30.5914 9.13474C30.5914 8.90947 30.5464 8.72926 30.5013 8.54905C30.4112 8.36884 30.3211 8.18863 30.186 8.05347C30.0508 7.91832 29.9156 7.82821 29.7354 7.7381C29.5552 7.648 29.375 7.60295 29.1498 7.60295C28.9245 7.60295 28.7443 7.648 28.5641 7.7381C28.3839 7.82821 28.2487 7.91832 28.1135 8.05347C27.9784 8.18863 27.8883 8.36884 27.7982 8.54905C27.7531 8.72926 27.7081 8.90947 27.7081 9.13474Z" fill="white"/>
<path d="M32.0314 9.13461C32.0314 8.90935 32.0764 8.72914 32.1215 8.50388C32.1665 8.32367 32.2566 8.0984 32.3467 7.91819C32.4368 7.73798 32.572 7.60282 32.7072 7.42261C32.8423 7.28746 33.0225 7.1523 33.2027 7.06219C33.3829 6.97209 33.5632 6.88198 33.7434 6.83693C33.9236 6.79188 34.1488 6.74683 34.3741 6.74683C34.5994 6.74683 34.7796 6.79188 35.0048 6.83693C35.185 6.88198 35.4103 6.97209 35.5905 7.06219C35.7707 7.1523 35.9059 7.28746 36.0861 7.42261C36.2213 7.55777 36.3564 7.73798 36.4465 7.91819C36.5366 8.0984 36.6267 8.27861 36.6718 8.50388C36.7168 8.68409 36.7619 8.90935 36.7619 9.13461C36.7619 9.35988 36.7168 9.54008 36.6718 9.76535C36.6267 9.94556 36.5366 10.1708 36.4465 10.306C36.3564 10.4862 36.2213 10.6213 36.0861 10.8016C35.9509 10.9367 35.7707 11.0719 35.5905 11.162C35.4103 11.2521 35.2301 11.3422 35.0048 11.3872C34.8246 11.4323 34.5994 11.4773 34.3741 11.4773C34.1488 11.4773 33.9686 11.4323 33.7434 11.3872C33.5632 11.3422 33.3379 11.2521 33.2027 11.162C33.0225 11.0719 32.8874 10.9367 32.7072 10.8016C32.527 10.6664 32.4368 10.4862 32.3467 10.306C32.2566 10.1258 32.1665 9.94556 32.1215 9.76535C32.0764 9.58514 32.0314 9.35988 32.0314 9.13461ZM32.9775 9.13461C32.9775 9.35988 33.0225 9.54008 33.0676 9.7203C33.1577 9.90051 33.2478 10.0807 33.3829 10.2159C33.5181 10.351 33.6533 10.4411 33.8335 10.5312C34.0137 10.6213 34.1939 10.6664 34.4192 10.6664C34.6444 10.6664 34.8246 10.6213 35.0048 10.5312C35.185 10.4411 35.3202 10.351 35.4554 10.2159C35.5905 10.0807 35.6806 9.90051 35.7707 9.7203C35.8608 9.54008 35.8608 9.35988 35.8608 9.13461C35.8608 8.90935 35.8158 8.72914 35.7707 8.54893C35.6806 8.36872 35.5905 8.18851 35.4554 8.05335C35.3202 7.91819 35.185 7.82809 35.0048 7.73798C34.8246 7.64788 34.6444 7.60283 34.4192 7.60283C34.1939 7.60283 34.0137 7.64788 33.8335 7.73798C33.6533 7.82809 33.5181 7.91819 33.3829 8.05335C33.2478 8.18851 33.1577 8.36872 33.0676 8.54893C32.9775 8.72914 32.9775 8.90935 32.9775 9.13461Z" fill="white"/>
<path d="M37.3043 9.13461C37.3043 8.90935 37.3494 8.72914 37.3944 8.50388C37.4395 8.32367 37.5296 8.0984 37.6197 7.91819C37.7098 7.73798 37.845 7.60282 37.9801 7.42261C38.1153 7.28746 38.2955 7.1523 38.4757 7.06219C38.6559 6.97209 38.8361 6.88198 39.0163 6.83693C39.1965 6.79188 39.4218 6.74683 39.6471 6.74683C39.8723 6.74683 40.0525 6.79188 40.2778 6.83693C40.458 6.88198 40.6833 6.97209 40.8635 7.06219C41.0437 7.1523 41.1788 7.28746 41.3591 7.42261C41.4942 7.55777 41.6294 7.73798 41.7195 7.91819C41.8096 8.0984 41.8997 8.27861 41.9447 8.50388C41.9898 8.68409 42.0348 8.90935 42.0348 9.13461C42.0348 9.35988 41.9898 9.54008 41.9447 9.76535C41.8997 9.94556 41.8096 10.1708 41.7195 10.306C41.6294 10.4862 41.4942 10.6213 41.3591 10.8016C41.2239 10.9367 41.0437 11.0719 40.8635 11.162C40.6833 11.2521 40.503 11.3422 40.2778 11.3872C40.0976 11.4323 39.8723 11.4773 39.6471 11.4773C39.4218 11.4773 39.2416 11.4323 39.0163 11.3872C38.8361 11.3422 38.6108 11.2521 38.4757 11.162C38.2955 11.0719 38.1603 10.9367 37.9801 10.8016C37.7999 10.6664 37.7098 10.4862 37.6197 10.306C37.5296 10.1258 37.4395 9.94556 37.3944 9.76535C37.3494 9.58514 37.3043 9.35988 37.3043 9.13461ZM38.2054 9.13461C38.2054 9.35988 38.2504 9.54008 38.2955 9.7203C38.3856 9.90051 38.4757 10.0807 38.6108 10.2159C38.746 10.351 38.8812 10.4411 39.0614 10.5312C39.2416 10.6213 39.4218 10.6664 39.6471 10.6664C39.8723 10.6664 40.0525 10.6213 40.2327 10.5312C40.4129 10.4411 40.5481 10.351 40.6833 10.2159C40.8184 10.0807 40.9085 9.90051 40.9986 9.7203C41.0887 9.54008 41.0887 9.35988 41.0887 9.13461C41.0887 8.90935 41.0437 8.72914 40.9986 8.54893C40.9085 8.36872 40.8184 8.18851 40.6833 8.05335C40.5481 7.91819 40.4129 7.82809 40.2327 7.73798C40.0525 7.64788 39.8723 7.60283 39.6471 7.60283C39.4218 7.60283 39.2416 7.64788 39.0614 7.73798C38.8812 7.82809 38.746 7.91819 38.6108 8.05335C38.4757 8.18851 38.3856 8.36872 38.2955 8.54893C38.2504 8.72914 38.2054 8.90935 38.2054 9.13461Z" fill="white"/>
<path d="M18.7881 19.6319C18.653 19.4066 18.4277 19.2715 18.1574 19.2715H18.0222V22.1548C18.0222 22.5603 17.7069 22.8757 17.3014 22.8757H16.986C16.5806 22.8757 16.2652 22.5603 16.2652 22.1548V19.2715H16.13C15.8597 19.2715 15.6344 19.4066 15.4993 19.6319L13.9675 22.5153C13.8323 22.7405 13.6071 22.8757 13.3368 22.8757H12.8412C12.3006 22.8757 11.9401 22.29 12.2105 21.7944L14.1027 18.5957C14.2378 18.3704 14.2378 18.0551 14.1027 17.8298L12.4808 15.3069C12.1654 14.8563 12.5258 14.2256 13.0665 14.2256H13.4719C13.7422 14.2256 13.9675 14.3608 14.1027 14.586L15.8597 17.7397H16.3102V14.9014C16.3102 14.4959 16.6256 14.1805 17.0311 14.1805H17.3464C17.7519 14.1805 18.0673 14.4959 18.0673 14.9014V17.7397H18.4728L20.1848 14.586C20.3199 14.3608 20.5452 14.2256 20.8155 14.2256H21.221C21.7616 14.2256 22.122 14.8563 21.8067 15.3069L20.1848 17.8298C20.0496 18.0551 20.0496 18.3254 20.1848 18.5506L22.0319 21.7944C22.3022 22.29 21.9418 22.8757 21.4012 22.8757H20.9056C20.6353 22.8757 20.41 22.7405 20.2749 22.5153L18.7881 19.6319Z" fill="white"/>
<path d="M37.8461 30.039C37.8912 30.9851 37.5758 31.7059 37.0352 32.2465C36.4495 32.7872 35.6385 33.0124 34.6474 33.0124C33.6112 33.0124 32.7552 32.6971 32.1245 32.0213C31.4937 31.3455 31.1783 30.4895 31.1783 29.4533V27.7413C31.1783 26.7051 31.4937 25.804 32.1245 25.1733C32.7552 24.4975 33.5661 24.1821 34.5573 24.1821C35.5935 24.1821 36.4495 24.4524 37.0352 24.948C37.6209 25.4436 37.9362 26.2095 37.8912 27.1105V27.1556H36.855C36.5396 27.1556 36.2242 26.9303 36.1792 26.615C36.1341 26.2996 35.999 26.0743 35.8188 25.8941C35.5484 25.6238 35.143 25.4887 34.5573 25.4887C34.0167 25.4887 33.6112 25.7139 33.3409 26.1194C33.0706 26.5249 32.8903 27.0655 32.8903 27.7413V29.4533C32.8903 30.1291 33.0255 30.6697 33.3409 31.0752C33.6562 31.4806 34.0617 31.7059 34.6023 31.7059C35.143 31.7059 35.5034 31.5708 35.7737 31.3004C35.9539 31.1202 36.044 30.895 36.0891 30.5796C36.1341 30.2642 36.4495 30.039 36.7649 30.039H37.8461Z" fill="white"/>
<path d="M52.4421 20.9836H50.6851C50.3697 20.9836 50.0994 21.1638 50.0093 21.4792L49.739 22.3352C49.6489 22.6506 49.3786 22.8308 49.0632 22.8308H48.7478C48.2523 22.8308 47.9369 22.3352 48.072 21.8847L50.5049 14.6312C50.595 14.3609 50.8653 14.1356 51.1807 14.1356H51.9466C52.2619 14.1356 52.5322 14.3158 52.6224 14.6312L55.0552 21.8847C55.1903 22.3352 54.875 22.8308 54.3794 22.8308H54.064C53.7487 22.8308 53.4784 22.6506 53.3882 22.3352L53.1179 21.4792C53.0278 21.2089 52.7575 20.9836 52.4421 20.9836ZM51.5411 19.632C52.0367 19.632 52.3971 19.1815 52.2169 18.731L51.5411 16.6135H51.496L50.8202 18.731C50.7301 19.1815 51.0906 19.632 51.5411 19.632Z" fill="white"/>
</svg>
