<svg width="69" height="62" fill="none" xmlns="http://www.w3.org/2000/svg"><path d="M35.322 40.626V60.72c0 .99 1.036 1.576 1.892 1.126l12.84-7.118c.406-.226.676-.631.676-1.127V33.688c0-.946-1.036-1.577-1.892-1.126L35.998 39.5c-.45.225-.676.676-.676 1.126zM0 24.047v19.508c0 .45.27.9.676 1.126l13.74 7.614c.857.45 1.893-.135 1.893-1.126V31.39c0-.451-.27-.902-.676-1.127l-13.74-7.389C1.035 22.47 0 23.055 0 24.047zM66.904 22.785L53.163 30.22a1.327 1.327 0 0 0-.676 1.126V51.17c0 .99 1.036 1.576 1.892 1.126L68.12 44.68c.406-.225.676-.63.676-1.126V23.912c0-.991-1.036-1.577-1.892-1.127zM18.11 33.733v19.823c0 .45.27.901.676 1.127l12.84 7.118c.856.45 1.893-.135 1.893-1.126V40.626c0-.45-.27-.9-.676-1.126l-12.84-6.893c-.856-.45-1.892.18-1.892 1.126zM16.668 9.63L2.024 17.74c-.856.495-.856 1.757 0 2.252l14.643 8.11c.405.225.9.225 1.306-.045l13.02-8.11a1.265 1.265 0 0 0 0-2.162l-13.02-8.11c-.405-.225-.901-.27-1.306-.045zM47.755 7.242L35.005.17c-.405-.225-.856-.225-1.216 0l-12.75 7.073c-.856.45-.901 1.667-.045 2.208l12.75 7.974c.405.27.946.27 1.351 0l12.75-7.974c.811-.54.766-1.757-.09-2.208zM52.123 28.102l14.642-8.11c.856-.495.856-1.757 0-2.253L52.123 9.63a1.243 1.243 0 0 0-1.307.045l-13.02 8.11a1.265 1.265 0 0 0 0 2.162l13.02 8.11c.406.27.901.27 1.307.045zM21.038 30.534l12.75 7.074c.405.225.856.225 1.216 0l12.75-7.074c.856-.45.901-1.667.045-2.207l-12.75-7.975a1.228 1.228 0 0 0-1.351 0l-12.75 7.975c-.811.495-.766 1.712.09 2.207z" fill="#1C2F50"/><path d="M26.762 9.135c0-.226.045-.406.09-.631.045-.18.135-.405.225-.586.09-.18.226-.315.36-.495a2 2 0 0 1 .496-.36c.18-.09.36-.18.541-.226.18-.045.405-.09.63-.09.226 0 .406.045.631.09.18.045.406.135.586.225.18.09.316.226.496.36.135.136.27.316.36.496.09.18.18.36.225.586.045.18.09.405.09.63 0 .226-.045.406-.09.631-.045.18-.135.406-.225.541-.09.18-.225.316-.36.496-.136.135-.316.27-.496.36-.18.09-.36.18-.586.225-.18.045-.405.09-.63.09-.226 0-.406-.045-.631-.09a1.953 1.953 0 0 1-.54-.225c-.18-.09-.316-.225-.496-.36-.18-.136-.27-.316-.36-.496-.09-.18-.18-.36-.226-.54a2.657 2.657 0 0 1-.09-.631zm.946 0c0 .225.045.405.09.585.09.18.18.36.316.496.135.135.27.225.45.315s.36.135.586.135c.225 0 .405-.045.585-.135.18-.09.316-.18.451-.315s.225-.315.315-.496c.09-.18.09-.36.09-.585a2.28 2.28 0 0 0-.09-.586c-.09-.18-.18-.36-.315-.496a1.62 1.62 0 0 0-.45-.315c-.18-.09-.361-.135-.586-.135-.226 0-.406.045-.586.135-.18.09-.315.18-.45.315-.136.136-.226.316-.316.496-.045.18-.09.36-.09.586zM32.031 9.135c0-.226.045-.406.09-.631.045-.18.136-.406.226-.586.09-.18.225-.315.36-.495a2 2 0 0 1 .496-.36c.18-.09.36-.181.54-.226.18-.045.406-.09.631-.09.225 0 .406.045.63.09.181.045.406.135.587.225.18.09.315.225.495.36a2 2 0 0 1 .36.496c.09.18.18.36.226.586.045.18.09.405.09.63 0 .226-.045.406-.09.631-.045.18-.135.406-.225.541-.09.18-.226.315-.36.496-.136.135-.316.27-.497.36-.18.09-.36.18-.585.225-.18.045-.406.09-.63.09-.226 0-.406-.045-.632-.09a1.95 1.95 0 0 1-.54-.225c-.18-.09-.316-.225-.496-.36-.18-.136-.27-.316-.36-.496-.09-.18-.18-.36-.226-.54a2.657 2.657 0 0 1-.09-.631zm.947 0c0 .225.044.405.09.585.09.18.18.36.315.496.135.135.27.225.45.315s.36.135.586.135c.225 0 .406-.045.586-.135.18-.09.315-.18.45-.315.136-.135.226-.315.316-.496.09-.18.09-.36.09-.585a2.28 2.28 0 0 0-.09-.586c-.09-.18-.18-.36-.316-.496a1.62 1.62 0 0 0-.45-.315c-.18-.09-.36-.135-.586-.135-.225 0-.405.045-.585.135-.18.09-.316.18-.451.315-.135.136-.225.316-.315.496s-.09.36-.09.586zM37.304 9.135c0-.226.045-.406.09-.631.046-.18.136-.406.226-.586.09-.18.225-.315.36-.495.135-.136.316-.27.496-.36.18-.09.36-.181.54-.226.18-.045.406-.09.631-.09.225 0 .406.045.63.09.181.045.406.135.587.225.18.09.315.225.495.36.135.136.27.316.36.496.09.18.18.36.226.586.045.18.09.405.09.63 0 .226-.045.406-.09.631a1.95 1.95 0 0 1-.226.541c-.09.18-.225.315-.36.496-.135.135-.315.27-.495.36-.18.09-.361.18-.586.225-.18.045-.406.09-.63.09-.226 0-.406-.045-.632-.09a1.948 1.948 0 0 1-.54-.225c-.18-.09-.316-.225-.496-.36-.18-.136-.27-.316-.36-.496a2.76 2.76 0 0 1-.226-.54 2.662 2.662 0 0 1-.09-.631zm.901 0c0 .225.045.405.09.585.09.18.18.36.316.496.135.135.27.225.45.315s.36.135.586.135c.225 0 .406-.045.586-.135.18-.09.315-.18.45-.315s.225-.315.316-.496c.09-.18.09-.36.09-.585a2.28 2.28 0 0 0-.09-.586c-.09-.18-.18-.36-.316-.496a1.62 1.62 0 0 0-.45-.315c-.18-.09-.36-.135-.586-.135-.225 0-.405.045-.586.135-.18.09-.315.18-.45.315-.135.136-.225.316-.316.496-.045.18-.09.36-.09.586zM18.788 19.632a.719.719 0 0 0-.63-.36h-.136v2.883c0 .405-.315.72-.72.72h-.316a.712.712 0 0 1-.72-.72V19.27h-.136a.719.719 0 0 0-.63.36l-1.533 2.884a.72.72 0 0 1-.63.36h-.496a.728.728 0 0 1-.63-1.08l1.892-3.2a.774.774 0 0 0 0-.765l-1.622-2.523c-.316-.45.045-1.081.585-1.081h.406a.72.72 0 0 1 .63.36l1.758 3.154h.45V14.9c0-.405.316-.72.721-.72h.315c.406 0 .721.315.721.72v2.839h.406l1.712-3.154a.719.719 0 0 1 .63-.36h.406c.54 0 .901.63.586 1.08l-1.622 2.524a.691.691 0 0 0 0 .72l1.847 3.244a.728.728 0 0 1-.63 1.082h-.496a.719.719 0 0 1-.631-.36l-1.487-2.884zM37.846 30.039c.045.946-.27 1.667-.81 2.207-.587.541-1.398.766-2.389.766-1.036 0-1.892-.315-2.523-.99-.63-.676-.946-1.532-.946-2.569v-1.712c0-1.036.316-1.937.946-2.568.631-.675 1.442-.99 2.433-.99 1.036 0 1.892.27 2.478.765.586.496.901 1.261.856 2.162v.046h-1.036c-.315 0-.63-.226-.676-.541a1.225 1.225 0 0 0-.36-.72c-.27-.271-.676-.406-1.262-.406-.54 0-.946.225-1.216.63-.27.406-.45.947-.45 1.622v1.712c0 .676.135 1.217.45 1.622.315.406.72.63 1.261.63.541 0 .901-.134 1.172-.405.18-.18.27-.405.315-.72.045-.316.36-.541.676-.541h1.081zM52.442 20.984h-1.757a.677.677 0 0 0-.676.495l-.27.856a.677.677 0 0 1-.676.496h-.315c-.496 0-.811-.496-.676-.946l2.433-7.254c.09-.27.36-.495.676-.495h.766c.315 0 .585.18.675.495l2.433 7.254c.135.45-.18.946-.676.946h-.315a.677.677 0 0 1-.676-.496l-.27-.856a.732.732 0 0 0-.676-.495zm-.9-1.352c.495 0 .855-.45.675-.901l-.676-2.118h-.045l-.676 2.118c-.09.45.27.901.721.901z" fill="#fff"/></svg>