<svg width="44" height="43" fill="none" xmlns="http://www.w3.org/2000/svg"><path d="M43.622 33.724L31.115 21.5l11.74-11.474a3.71 3.71 0 0 0 .007-5.339l-3.659-3.575c-1.504-1.47-3.953-1.47-5.458.002L22 12.593 9.492.368a1.31 1.31 0 0 0-1.823 0L.377 7.496a1.24 1.24 0 0 0 0 1.781L12.885 21.5l-8.776 8.576a1.256 1.256 0 0 0-.311.493L.066 41.342a1.24 1.24 0 0 0 .311 1.29 1.31 1.31 0 0 0 1.32.304l11.023-3.648c.19-.061.363-.165.504-.304L22 30.408l12.507 12.223a1.31 1.31 0 0 0 1.823 0l7.292-7.126a1.24 1.24 0 0 0 0-1.782zM35.568 2.896c.5-.49 1.313-.49 1.812-.002l3.659 3.575a1.232 1.232 0 0 1-.006 1.775l-1.823 1.782-5.47-5.345 1.828-1.785zm-3.65 3.567l5.469 5.345-1.823 1.781-5.47-5.345 1.824-1.781zM3.112 8.387L8.58 3.042l3.646 3.563-.912.89a1.24 1.24 0 0 0 0 1.782 1.31 1.31 0 0 0 1.823 0l.912-.89 1.823 1.781-.912.89a1.24 1.24 0 0 0 0 1.782 1.31 1.31 0 0 0 1.823 0l.912-.89 2.48 2.424-5.468 5.345L3.111 8.387zm25.16 1.639l1.823 1.782-21.428 20.94-1.823-1.78 21.428-20.942zM3.327 39.749l2.257-6.45 4.342 4.244-6.599 2.206zm8.986-3.437L10.49 34.53l21.428-20.94 1.823 1.78-21.428 20.942zm23.105 3.647L23.824 28.627l5.469-5.345 2.48 2.424-.911.891a1.24 1.24 0 0 0 0 1.782 1.31 1.31 0 0 0 1.823 0l.911-.891 1.824 1.782-.912.89a1.24 1.24 0 0 0 0 1.782 1.31 1.31 0 0 0 1.823 0l.912-.89 3.646 3.562-5.47 5.345z" fill="#1C2F50"/></svg>