<svg width="46" height="47" fill="none" xmlns="http://www.w3.org/2000/svg"><path d="M34.425 7.42l-.017-.01-10.782-5.783c-.392-.21-.86-.21-1.252 0L11.592 7.41c-.45.243-.72.72-.72 1.219v12.117c0 .475.238.916.633 1.168l10.78 6.884c.435.278.994.278 1.43 0l10.78-6.884c.395-.252.634-.693.634-1.168V8.63c0-.488-.26-.962-.703-1.209zM21.652 25.147l-8.086-5.164V11.06l8.086 4.957v9.128zM23 13.633l-8.031-4.924L23 4.4l8.031 4.308L23 13.633zm9.434 6.35l-8.086 5.163v-9.128l8.086-4.957v8.922zM44.652 6.977c-.744 0-1.347.616-1.347 1.377v2.753c0 .76.603 1.377 1.347 1.377.745 0 1.348-.616 1.348-1.377V8.354c0-.76-.603-1.377-1.348-1.377zM44.652 15.238c-.744 0-1.347.617-1.347 1.377v2.754c0 .76.603 1.377 1.347 1.377.745 0 1.348-.616 1.348-1.377v-2.754c0-.76-.603-1.377-1.348-1.377zM44.652 23.5c-.744 0-1.347.616-1.347 1.377v2.754c0 .76.603 1.377 1.347 1.377.745 0 1.348-.617 1.348-1.377v-2.754c0-.76-.603-1.377-1.348-1.377zM44.652 31.762c-.744 0-1.347.616-1.347 1.377v3.746l-19.98-5.082a1.317 1.317 0 0 0-.65 0l-19.98 5.082v-3.746c0-.76-.603-1.377-1.347-1.377-.745 0-1.348.616-1.348 1.377v5.508c0 .64.439 1.188 1.022 1.336l21.652 5.508a1.32 1.32 0 0 0 .652 0l21.652-5.508A1.378 1.378 0 0 0 46 38.647v-5.508c0-.76-.603-1.377-1.348-1.377zM23 42.735L6.926 38.647 23 34.556l16.074 4.09L23 42.735zM1.348 6.977C.603 6.977 0 7.593 0 8.354v2.753c0 .76.603 1.377 1.348 1.377.744 0 1.347-.616 1.347-1.377V8.354c0-.76-.603-1.377-1.347-1.377zM1.348 15.238c-.745 0-1.348.617-1.348 1.377v2.754c0 .76.603 1.377 1.348 1.377.744 0 1.347-.616 1.347-1.377v-2.754c0-.76-.603-1.377-1.347-1.377zM1.348 23.5C.603 23.5 0 24.116 0 24.877v2.754c0 .76.603 1.377 1.348 1.377.744 0 1.347-.617 1.347-1.377v-2.754c0-.76-.603-1.377-1.347-1.377zM6.738 1.469c-.744 0-1.347.616-1.347 1.377V5.6c0 .76.603 1.377 1.347 1.377.745 0 1.348-.617 1.348-1.377V2.846c0-.76-.603-1.377-1.348-1.377zM6.738 9.73c-.744 0-1.347.617-1.347 1.377v2.754c0 .76.603 1.377 1.347 1.377.745 0 1.348-.616 1.348-1.377v-2.754c0-.76-.603-1.377-1.348-1.377zM6.738 17.992c-.744 0-1.347.617-1.347 1.377v2.754c0 .76.603 1.377 1.347 1.377.745 0 1.348-.616 1.348-1.377v-2.754c0-.76-.603-1.377-1.348-1.377z" fill="#1C2F50"/><path d="M6.738 26.254c-.744 0-1.347.616-1.347 1.377v2.754c0 .76.603 1.377 1.347 1.377.745 0 1.348-.617 1.348-1.377V27.63c0-.76-.603-1.377-1.348-1.377zM39.262 1.469c-.745 0-1.348.616-1.348 1.377V5.6c0 .76.603 1.377 1.348 1.377.744 0 1.347-.617 1.347-1.377V2.846c0-.76-.603-1.377-1.347-1.377zM39.262 9.73c-.745 0-1.348.617-1.348 1.377v2.754c0 .76.603 1.377 1.348 1.377.744 0 1.347-.616 1.347-1.377v-2.754c0-.76-.603-1.377-1.347-1.377zM39.262 17.992c-.745 0-1.348.617-1.348 1.377v2.754c0 .76.603 1.377 1.348 1.377.744 0 1.347-.616 1.347-1.377v-2.754c0-.76-.603-1.377-1.347-1.377zM39.262 26.254c-.745 0-1.348.616-1.348 1.377v2.754c0 .76.603 1.377 1.348 1.377.744 0 1.347-.617 1.347-1.377V27.63c0-.76-.603-1.377-1.347-1.377z" fill="#1C2F50"/></svg>