<svg width="44" height="43" viewBox="0 0 44 43" fill="none" xmlns="http://www.w3.org/2000/svg">
<path d="M43.622 33.7235C42.9646 33.0811 31.8156 22.1854 31.1146 21.5004L42.8558 10.026C44.3664 8.54977 44.3745 6.16521 42.8619 4.68718L39.2033 1.11198C37.6991 -0.358166 35.2503 -0.357326 33.7449 1.11399L21.9996 12.5925C21.7311 12.3301 10.514 1.36796 9.49228 0.369472C8.98895 -0.122506 8.17272 -0.122506 7.66929 0.369472L0.377269 7.49569C-0.126151 7.98767 -0.126151 8.78526 0.377269 9.27724L12.8846 21.5004L4.10926 30.0763C3.96781 30.2146 3.86108 30.3832 3.79783 30.5687L0.065833 41.3422C-0.0885961 41.7949 0.0319738 42.294 0.377269 42.6313C0.72308 42.9692 1.23389 43.0864 1.6964 42.9357L12.7203 39.2885C12.9102 39.2267 13.0827 39.1225 13.2242 38.9842L21.9996 30.4082L34.507 42.6313C35.0099 43.123 35.8267 43.1232 36.3299 42.6313L43.622 35.505C44.1255 35.0131 44.1255 34.2155 43.622 33.7235ZM35.5678 2.89554C36.0681 2.40676 36.8811 2.40567 37.3803 2.89361L41.039 6.4689C41.5417 6.96012 41.5379 7.75083 41.0329 8.2444L39.2098 10.0261L33.7407 4.68138L33.7407 4.6813L35.5678 2.89554ZM31.9177 6.46285L37.3868 11.8077L35.5638 13.5892L30.0948 8.24449L30.0947 8.2444L31.9177 6.46285ZM3.11179 8.38651L8.58083 3.04176L12.2268 6.60495L11.3154 7.49577C10.8119 7.98775 10.8119 8.78535 11.3154 9.27732C11.8187 9.7693 12.6349 9.7693 13.1383 9.27732L14.0498 8.38651L15.8729 10.1681L14.9613 11.0589C14.4579 11.5509 14.4579 12.3485 14.9613 12.8404C15.4647 13.3324 16.2809 13.3324 16.7843 12.8404L17.6958 11.9496L20.1765 14.374L14.7075 19.7187L3.11179 8.38651ZM28.2716 10.026L28.2717 10.026L30.0947 11.8076L8.66668 32.7487L6.8437 30.9671C7.56015 30.267 27.2187 11.055 28.2716 10.026ZM3.32698 39.7487L5.58412 33.2992C5.97461 33.6808 9.13822 36.7725 9.92643 37.5428L3.32698 39.7487ZM12.3127 36.3119L10.4898 34.5303L31.9178 13.5892L33.7408 15.3709C33.2331 15.867 12.5476 36.0823 12.3127 36.3119ZM35.4185 39.959L23.8226 28.6267L29.2916 23.2819L31.7724 25.7064L30.861 26.5972C30.3576 27.0892 30.3576 27.8868 30.861 28.3787C31.3643 28.8707 32.1805 28.8707 32.684 28.3787L33.5954 27.4879L35.4185 29.2696L34.507 30.1604C34.0036 30.6524 34.0036 31.45 34.507 31.9419C35.0104 32.4339 35.8266 32.4339 36.33 31.9419L37.2415 31.0511L40.8875 34.6143L35.4185 39.959Z" fill="#1C2F50"/>
</svg>
