<svg width="49" height="49" viewBox="0 0 49 49" fill="none" xmlns="http://www.w3.org/2000/svg">
<path d="M49 22.2018C49 21.409 48.3573 20.7663 47.5645 20.7663C46.7716 20.7663 46.1289 21.409 46.1289 22.2018C46.1289 26.4836 44.8316 30.6155 42.3645 34.2345C39.786 32.4393 36.5765 31.0429 33.062 30.1841C36.9704 24.3868 38.9512 19.9023 38.9512 16.8425C38.9512 8.87403 32.4684 2.3913 24.5 2.3913C16.5316 2.3913 10.0488 8.87403 10.0488 16.8425C10.0488 19.9076 12.0362 24.4021 15.9579 30.2137C12.4482 31.0809 9.24014 32.4795 6.65988 34.2701C4.17677 30.6431 2.87109 26.4987 2.87109 22.2018C2.87109 21.409 2.22835 20.7663 1.43555 20.7663C0.642742 20.7663 0 21.409 0 22.2018C0 31.7225 5.68831 40.0843 13.5957 44.0401C23.8171 49.1533 36.5313 46.5212 43.8027 37.1366C43.8027 37.1364 43.8029 37.1363 43.803 37.1361C47.203 32.7481 49 27.584 49 22.2018ZM24.5 5.26239C30.8853 5.26239 36.0801 10.4572 36.0801 16.8425C36.0801 21.802 28.5192 31.964 24.5 36.8218C20.4808 31.964 12.9199 21.802 12.9199 16.8425C12.9199 10.4572 18.1147 5.26239 24.5 5.26239ZM8.42944 36.5362C10.9628 34.8071 14.1935 33.4927 17.7345 32.7539C20.6526 36.7903 23.2932 39.845 23.4153 39.9859C23.9868 40.6453 25.0122 40.6464 25.5847 39.9859C25.7071 39.8447 28.3589 36.777 31.2846 32.7275C34.8339 33.4563 38.0686 34.7688 40.5998 36.5036C32.0555 46.1418 16.987 46.1486 8.42944 36.5362Z" fill="#1C2F50"/>
<path d="M31.2949 16.8425C31.2949 13.0958 28.2467 10.0475 24.5 10.0475C20.7533 10.0475 17.7051 13.0958 17.7051 16.8425C17.7051 20.5892 20.7533 23.6374 24.5 23.6374C28.2467 23.6374 31.2949 20.5892 31.2949 16.8425ZM20.5762 16.8425C20.5762 14.6789 22.3364 12.9186 24.5 12.9186C26.6636 12.9186 28.4238 14.6789 28.4238 16.8425C28.4238 19.006 26.6636 20.7663 24.5 20.7663C22.3364 20.7663 20.5762 19.0061 20.5762 16.8425Z" fill="#1C2F50"/>
</svg>
