<svg width="46" height="47" viewBox="0 0 46 47" fill="none" xmlns="http://www.w3.org/2000/svg">
<path d="M34.4255 7.42013C34.4195 7.41673 34.4137 7.41306 34.4077 7.40975L23.6265 1.62655C23.2343 1.41615 22.7658 1.41615 22.3736 1.62655L11.5924 7.40975C11.1413 7.65265 10.8711 8.13008 10.8711 8.62891V20.7461C10.8711 21.2209 11.1104 21.6621 11.5045 21.9137L22.2857 28.7985C22.7197 29.0764 23.2793 29.0763 23.7143 28.7985L34.4955 21.9137C34.8896 21.6621 35.1289 21.2209 35.1289 20.7461V8.62891C35.1289 8.14082 34.8693 7.66669 34.4255 7.42013ZM21.6523 25.1465L13.5664 19.9829V11.0609L21.6523 16.0179V25.1465ZM23 13.6325L14.9687 8.70895L23 4.40083L31.0313 8.70895L23 13.6325ZM32.4336 19.9829L24.3477 25.1465V16.0179L32.4336 11.0609V19.9829Z" fill="#1C2F50"/>
<path d="M44.6523 6.97656C43.9081 6.97656 43.3047 7.59307 43.3047 8.35352V11.1074C43.3047 11.8679 43.9081 12.4844 44.6523 12.4844C45.3966 12.4844 46 11.8679 46 11.1074V8.35352C46 7.59307 45.3966 6.97656 44.6523 6.97656Z" fill="#1C2F50"/>
<path d="M44.6523 15.2383C43.9081 15.2383 43.3047 15.8548 43.3047 16.6152V19.3691C43.3047 20.1296 43.9081 20.7461 44.6523 20.7461C45.3966 20.7461 46 20.1296 46 19.3691V16.6152C46 15.8548 45.3966 15.2383 44.6523 15.2383Z" fill="#1C2F50"/>
<path d="M44.6523 23.5C43.9081 23.5 43.3047 24.1165 43.3047 24.877V27.6309C43.3047 28.3913 43.9081 29.0078 44.6523 29.0078C45.3966 29.0078 46 28.3913 46 27.6309V24.877C46 24.1165 45.3966 23.5 44.6523 23.5Z" fill="#1C2F50"/>
<path d="M44.6523 31.7617C43.9081 31.7617 43.3047 32.3782 43.3047 33.1387V36.8847L23.3256 31.8026C23.1117 31.7481 22.8883 31.7481 22.6744 31.8026L2.69531 36.8847V33.1387C2.69531 32.3782 2.09192 31.7617 1.34766 31.7617C0.603391 31.7617 0 32.3782 0 33.1387V38.6465C0 39.2876 0.438527 39.8352 1.02206 39.9827L22.6744 45.4905C22.7813 45.5177 22.8907 45.5312 23 45.5312C23.1093 45.5312 23.2187 45.5177 23.3256 45.4905L44.9779 39.9827C45.5695 39.8331 46 39.2805 46 38.6465V33.1387C46 32.3782 45.3966 31.7617 44.6523 31.7617ZM23 42.7353L6.92596 38.6465L23 34.5577L39.074 38.6465L23 42.7353Z" fill="#1C2F50"/>
<path d="M1.34766 6.97656C0.603391 6.97656 0 7.59307 0 8.35352V11.1074C0 11.8679 0.603391 12.4844 1.34766 12.4844C2.09192 12.4844 2.69531 11.8679 2.69531 11.1074V8.35352C2.69531 7.59307 2.09192 6.97656 1.34766 6.97656Z" fill="#1C2F50"/>
<path d="M1.34766 15.2383C0.603391 15.2383 0 15.8548 0 16.6152V19.3691C0 20.1296 0.603391 20.7461 1.34766 20.7461C2.09192 20.7461 2.69531 20.1296 2.69531 19.3691V16.6152C2.69531 15.8548 2.09192 15.2383 1.34766 15.2383Z" fill="#1C2F50"/>
<path d="M1.34766 23.5C0.603391 23.5 0 24.1165 0 24.877V27.6309C0 28.3913 0.603391 29.0078 1.34766 29.0078C2.09192 29.0078 2.69531 28.3913 2.69531 27.6309V24.877C2.69531 24.1165 2.09192 23.5 1.34766 23.5Z" fill="#1C2F50"/>
<path d="M6.73828 1.46875C5.99402 1.46875 5.39062 2.08526 5.39062 2.8457V5.59961C5.39062 6.36005 5.99402 6.97656 6.73828 6.97656C7.48255 6.97656 8.08594 6.36005 8.08594 5.59961V2.8457C8.08594 2.08526 7.48255 1.46875 6.73828 1.46875Z" fill="#1C2F50"/>
<path d="M6.73828 9.73047C5.99402 9.73047 5.39062 10.347 5.39062 11.1074V13.8613C5.39062 14.6218 5.99402 15.2383 6.73828 15.2383C7.48255 15.2383 8.08594 14.6218 8.08594 13.8613V11.1074C8.08594 10.347 7.48255 9.73047 6.73828 9.73047Z" fill="#1C2F50"/>
<path d="M6.73828 17.9922C5.99402 17.9922 5.39062 18.6087 5.39062 19.3691V22.123C5.39062 22.8835 5.99402 23.5 6.73828 23.5C7.48255 23.5 8.08594 22.8835 8.08594 22.123V19.3691C8.08594 18.6087 7.48255 17.9922 6.73828 17.9922Z" fill="#1C2F50"/>
<path d="M6.73828 26.2539C5.99402 26.2539 5.39062 26.8704 5.39062 27.6309V30.3848C5.39062 31.1452 5.99402 31.7617 6.73828 31.7617C7.48255 31.7617 8.08594 31.1452 8.08594 30.3848V27.6309C8.08594 26.8704 7.48255 26.2539 6.73828 26.2539Z" fill="#1C2F50"/>
<path d="M39.2617 1.46875C38.5175 1.46875 37.9141 2.08526 37.9141 2.8457V5.59961C37.9141 6.36005 38.5175 6.97656 39.2617 6.97656C40.006 6.97656 40.6094 6.36005 40.6094 5.59961V2.8457C40.6094 2.08526 40.006 1.46875 39.2617 1.46875Z" fill="#1C2F50"/>
<path d="M39.2617 9.73047C38.5175 9.73047 37.9141 10.347 37.9141 11.1074V13.8613C37.9141 14.6218 38.5175 15.2383 39.2617 15.2383C40.006 15.2383 40.6094 14.6218 40.6094 13.8613V11.1074C40.6094 10.347 40.006 9.73047 39.2617 9.73047Z" fill="#1C2F50"/>
<path d="M39.2617 17.9922C38.5175 17.9922 37.9141 18.6087 37.9141 19.3691V22.123C37.9141 22.8835 38.5175 23.5 39.2617 23.5C40.006 23.5 40.6094 22.8835 40.6094 22.123V19.3691C40.6094 18.6087 40.006 17.9922 39.2617 17.9922Z" fill="#1C2F50"/>
<path d="M39.2617 26.2539C38.5175 26.2539 37.9141 26.8704 37.9141 27.6309V30.3848C37.9141 31.1452 38.5175 31.7617 39.2617 31.7617C40.006 31.7617 40.6094 31.1452 40.6094 30.3848V27.6309C40.6094 26.8704 40.006 26.2539 39.2617 26.2539Z" fill="#1C2F50"/>
</svg>
